<?xml version="1.0" encoding="utf-8"?>
<!-- Generator: Adobe Illustrator 13.0.3, SVG Export Plug-In . SVG Version: 6.00 Build 14948)  -->
<!DOCTYPE svg PUBLIC "-//W3C//DTD SVG 1.1//EN" "http://www.w3.org/Graphics/SVG/1.1/DTD/svg11.dtd">
<svg version="1.1" xmlns="http://www.w3.org/2000/svg" xmlns:xlink="http://www.w3.org/1999/xlink" x="0px" y="0px"
	 width="200px" height="200px" 
	 xml:space="preserve">
<g id="pixivLogo">
</g>
	<g>
		<path fill="#0096DB" d="M144.266,56.523c-11.156-9.743-26.78-15.365-44.937-15.365c-47.325,0-79.516,36.5-79.516,36.5
			l9.071,14.389c0,0,5.018,0.42,2.361-8.055c2.294-4.33,6.785-10.162,15.553-16.893c0,0,0,90.905,0,95.837
			c-3.78,1.066-8.776,3.07-5.37,6.475c5.815,0,21.735,0,26.057,0c3.439-3.439-1.979-5.509-5.28-6.475c0-3.699,0-22.608,0-22.608
			s17.866,7.009,37.124,7.009c16.922,0,32.318-5.031,43.77-14.119c11.451-9.036,18.831-22.528,18.786-37.95
			C161.918,80.126,155.433,66.23,144.266,56.523z M130.457,125.652c-7.918,7.814-19.434,12.756-32.718,12.746
			c-14.82,0.008-27.296-2.86-35.533-6.914c0,0,0-2.48,0-20.595c0-19.595,0-51.307,0-51.307c9.038-6.418,23.696-10.372,35.533-10.348
			c14.381,0.011,25.675,5.441,33.31,13.684c7.623,8.291,11.785,19.305,11.822,32.106
			C142.825,107.499,138.376,117.773,130.457,125.652z"/>
	</g>
</svg>
